<?xml version="1.0" standalone="no"?>
<svg viewBox="0 0 200 200" xmlns="http://www.w3.org/2000/svg">
  <path fill="#A0F2E6" d="M36.8,-67.6C47.3,-57.7,55.1,-47,61.1,-35.6C67.1,-24.2,71.3,-12.1,73.3,1.1C75.2,14.4,75,28.8,70.4,42.6C65.8,56.4,56.8,69.7,44.4,73.4C31.9,77.1,16,71.1,-0.3,71.6C-16.5,72,-33,78.9,-47.3,76.3C-61.6,73.7,-73.7,61.6,-81,47.3C-88.3,33,-90.9,16.5,-88,1.7C-85.1,-13.1,-76.6,-26.2,-69,-40.1C-61.4,-53.9,-54.7,-68.6,-43.4,-78C-32,-87.4,-16,-91.7,-1.4,-89.2C13.1,-86.8,26.3,-77.5,36.8,-67.6Z" transform="translate(100 100)" />
</svg>
