<?xml version="1.0" standalone="no"?>
<svg viewBox="0 0 200 200" xmlns="http://www.w3.org/2000/svg">
  <path fill="#C7E9FF" d="M41.5,-72.1C51.5,-66.2,55.7,-50.4,62,-36.7C68.2,-23,76.6,-11.5,80.3,2.1C83.9,15.7,82.9,31.5,76.3,44.6C69.7,57.7,57.5,68.2,43.9,77C30.3,85.7,15.1,92.7,-0.5,93.5C-16.1,94.4,-32.2,89,-46.2,80.5C-60.1,71.9,-72,60.2,-75.1,46.2C-78.2,32.3,-72.6,16.1,-71.8,0.5C-71,-15.2,-74.9,-30.4,-69.7,-40.7C-64.6,-51.1,-50.2,-56.6,-37.1,-60.6C-23.9,-64.6,-12,-67.2,1.9,-70.5C15.8,-73.8,31.6,-77.9,41.5,-72.1Z" transform="translate(100 100)" />
</svg>
